# xmcd
#
# Track frame offsets: 
#        150
#        15315
#        46545
#        76652
#        105767
#
# Disc length: 1810 seconds
#
# Revision: 0
# Processed by: cddbd v1.5.2PL0 Copyright (c) Steve Scherf et al.
# Submitted via: ExactAudioCopy v1.0b3
#
DISCID=1b071005
DTITLE=Mars Plastic - Wonderland
DYEAR=1900
DGENRE=
TTITLE0=Wonderland (Brescia City Mix 7'')
TTITLE1=Wonderland (Magic Domingo Mix)
TTITLE2=Wonderland (Brescia City Club Mix)
TTITLE3=Wonderland (Plus Staples Mix)
TTITLE4=Wonderland (Trans Mission Mix)
EXTD=
EXTT0=
EXTT1=
EXTT2=
EXTT3=
EXTT4=
PLAYORDER=
